<svg height="512pt" viewBox="0 -11 512 512" width="512pt" xmlns="http://www.w3.org/2000/svg"><path d="m497 170h-11.410156c1.703125-14.5625-1.242188-29.492188-8.753906-42.5-12.359376-21.40625-35.109376-34.097656-58.867188-34.46875-.375-23.757812-13.066406-46.511719-34.46875-58.867188-21.40625-12.359374-47.453125-11.972656-68.214844-.417968-12.203125-20.386719-34.570312-33.746094-59.285156-33.746094s-47.082031 13.359375-59.285156 33.746094c-20.761719-11.554688-46.808594-11.941406-68.214844.417968-21.402344 12.355469-34.09375 35.109376-34.46875 58.867188-23.757812.375-46.511719 13.066406-58.867188 34.46875-7.511718 13.007812-10.457031 27.9375-8.757812 42.5h-11.40625c-8.285156 0-15 6.71875-15 15v19c0 90.132812 47.476562 173.484375 124.492188 219.664062v51.335938c0 8.285156 6.71875 15 15 15h233.015624c8.285157 0 15-6.714844 15-15v-51.335938c77.015626-46.179687 124.492188-129.53125 124.492188-219.664062v-19c0-8.285156-6.714844-15-15-15zm-435.855469-27.5c9.167969-15.878906 28.449219-23.273438 45.847657-17.589844 5.371093 1.757813 11.273437.347656 15.269531-3.648437 3.996093-3.996094 5.40625-9.898438 3.648437-15.269531-5.6875-17.398438 1.707032-36.679688 17.589844-45.847657s36.277344-5.933593 48.5 7.691407c3.773438 4.207031 9.589844 5.933593 15.046875 4.472656 5.460937-1.460938 9.632813-5.867188 10.796875-11.398438 3.769531-17.910156 19.820312-30.910156 38.15625-30.910156s34.386719 13 38.15625 30.910156c1.164062 5.53125 5.335938 9.9375 10.796875 11.398438 5.457031 1.464844 11.273437-.265625 15.046875-4.472656 12.222656-13.625 32.617188-16.859376 48.5-7.691407s23.277344 28.453125 17.589844 45.847657c-1.757813 5.371093-.347656 11.273437 3.648437 15.269531 3.996094 3.996093 9.898438 5.40625 15.269531 3.648437 17.398438-5.6875 36.679688 1.710938 45.847657 17.589844 4.84375 8.390625 6.328125 18.195312 4.378906 27.5h-398.46875c-1.949219-9.304688-.464844-19.113281 4.378906-27.5zm296.363281 317.5h-203.015624v-30h203.015624zm124.492188-256c0 80.933594-43.359375 155.675781-113.433594 196h-225.132812c-70.074219-40.324219-113.433594-115.066406-113.433594-196v-4h452zm0 0"/></svg>