<svg height="511pt" viewBox="0 -33 511.99996 511" width="511pt" xmlns="http://www.w3.org/2000/svg"><path d="m511.972656 28.054688c-.339844-7.8125-3.746094-14.992188-9.597656-20.214844-5.972656-5.328125-13.96875-7.953125-21.964844-7.21875-7.976562.742187-15.351562 4.800781-20.230468 11.128906l-113.136719 146.746094h-12.042969v-2.5c0-15.160156-12.335938-27.5-27.5-27.5h-46c-6.441406 0-12.363281 2.230468-17.054688 5.953125-13.371093-44.464844-54.683593-76.953125-103.445312-76.953125-57.199219 0-104.148438 44.699218-107.765625 101h-15.734375c-9.648438 0-17.5 7.851562-17.5 17.5 0 0 .0625 21.085937.175781 21.605468 2.125 57.539063 25.523438 111.328126 66.457031 152.261719 22.933594 22.933594 49.898438 40.359375 79.296876 51.632813h-65.429688c-6.894531 0-12.5 5.609375-12.5 12.5v10c0 12.40625 10.09375 22.5 22.5 22.5h255.5c4.140625 0 7.5-3.355469 7.5-7.5 0-4.140625-3.359375-7.5-7.5-7.5h-255.5c-4.136719 0-7.5-3.363282-7.5-7.5v-7.5h332v7.5c0 4.136718-3.363281 7.5-7.5 7.5h-26.5c-4.144531 0-7.5 3.359375-7.5 7.5 0 4.144531 3.355469 7.5 7.5 7.5h26.5c12.40625 0 22.5-10.09375 22.5-22.5v-10c0-6.890625-5.609375-12.5-12.5-12.5h-65.433594c29.402344-11.269532 56.367188-28.699219 79.300782-51.632813 40.933593-40.933593 64.332031-94.722656 66.457031-152.261719.113281-.519531.175781-21.605468.175781-21.605468 0-9.648438-7.851562-17.5-17.5-17.5h-79.378906l103.054687-109.484375c5.367188-5.703125 8.136719-13.144531 7.796875-20.957031zm-250.472656 115.441406h46c6.890625 0 12.5 5.609375 12.5 12.5v2.5h-71v-2.5c0-6.890625 5.605469-12.5 12.5-12.5zm-120.5-71c48.925781 0 89.148438 37.976562 92.738281 86h-15.070312c-3.550781-39.738282-37.019531-71-77.667969-71s-74.117188 31.261718-77.671875 71h-15.066406c3.589843-48.023438 43.8125-86 92.738281-86zm34.183594 86c-3.445313-15.703125-17.460938-27.5-34.183594-27.5s-30.738281 11.796875-34.183594 27.5h-28.417968c3.496093-31.453125 30.230468-56 62.601562-56s59.105469 24.546875 62.601562 56zm-15.65625 0h-37.054688c2.972656-7.320313 10.152344-12.5 18.527344-12.5s15.550781 5.179687 18.527344 12.5zm323.472656 17.5v12.5h-31.5c-4.144531 0-7.5 3.359375-7.5 7.5 0 4.144531 3.355469 7.5 7.5 7.5h30.992188c-7.476563 110.4375-99.695313 198-211.992188 198h-43c-101.914062 0-187.285156-72.117188-207.796875-168h68.296875c4.144531 0 7.5-3.355469 7.5-7.5 0-4.140625-3.355469-7.5-7.5-7.5h-70.941406c-.691406-4.945313-1.210938-9.949219-1.554688-15h400.996094c4.140625 0 7.5-3.355469 7.5-7.5 0-4.140625-3.359375-7.5-7.5-7.5h-401.5v-12.5c0-1.378906 1.121094-2.5 2.5-2.5h463c1.378906 0 2.5 1.121094 2.5 2.5zm10.253906-137.265625-112.734375 119.765625h-14.539062l106.078125-137.585938c2.382812-3.089844 5.839844-4.988281 9.742187-5.351562 3.90625-.355469 7.667969.871094 10.589844 3.476562 2.800781 2.5 4.433594 5.9375 4.597656 9.671875.160157 3.734375-1.167969 7.292969-3.734375 10.023438zm0 0"/></svg>